<mxfile host="www.draw.io" modified="2019-12-30T13:26:16.449Z" agent="Mozilla/5.0 (Windows NT 10.0; WOW64) AppleWebKit/537.36 (KHTML, like Gecko) Chrome/73.0.3683.86 Safari/537.36" etag="O3xz3fns-wDYEVTTbBbp" version="12.4.7" type="github">
  <diagram id="UPyzHFzxg97XWk28Zjea" name="Page-1">
    <mxGraphModel dx="1422" dy="772" grid="1" gridSize="10" guides="1" tooltips="1" connect="1" arrows="1" fold="1" page="1" pageScale="1" pageWidth="827" pageHeight="1169" math="0" shadow="0">
      <root>
        <mxCell id="0"/>
        <mxCell id="1" parent="0"/>
        <mxCell id="CJsCfDMsqGjUWDNOdAo3-1" value="测试：&lt;br&gt;基准测试" style="rounded=0;whiteSpace=wrap;html=1;" parent="1" vertex="1">
          <mxGeometry x="50" y="150" width="70" height="450" as="geometry"/>
        </mxCell>
        <mxCell id="F66TZWwp65rPG8IZTRiZ-1" value="了解服务器" style="rounded=1;whiteSpace=wrap;html=1;" vertex="1" parent="1">
          <mxGeometry x="170" y="170" width="450" height="70" as="geometry"/>
        </mxCell>
      </root>
    </mxGraphModel>
  </diagram>
</mxfile>
